<mxfile host="app.diagrams.net" modified="2021-07-29T03:37:20.539Z" agent="5.0 (Windows NT 10.0; Win64; x64) AppleWebKit/537.36 (KHTML, like Gecko) Chrome/92.0.4515.107 Safari/537.36 Edg/92.0.902.55" etag="WE_pBOynVOqytW-woCop" version="14.9.1" type="github">
  <diagram id="2zuEqZ4ByPk2DKEaJwRW" name="Page-1">
    <mxGraphModel dx="1020" dy="517" grid="1" gridSize="10" guides="1" tooltips="1" connect="1" arrows="1" fold="1" page="1" pageScale="1" pageWidth="850" pageHeight="1100" math="0" shadow="0">
      <root>
        <mxCell id="0" />
        <mxCell id="1" parent="0" />
        <mxCell id="GjIBwECu_L8q4WD-lNS--1" value="" style="rounded=0;whiteSpace=wrap;html=1;rotation=90;" vertex="1" parent="1">
          <mxGeometry x="-10" y="150" width="330" height="135" as="geometry" />
        </mxCell>
        <mxCell id="GjIBwECu_L8q4WD-lNS--4" value="" style="triangle;whiteSpace=wrap;html=1;" vertex="1" parent="1">
          <mxGeometry x="720" y="390" width="60" height="80" as="geometry" />
        </mxCell>
        <mxCell id="GjIBwECu_L8q4WD-lNS--5" value="" style="triangle;whiteSpace=wrap;html=1;" vertex="1" parent="1">
          <mxGeometry x="600" y="400" width="60" height="80" as="geometry" />
        </mxCell>
        <mxCell id="GjIBwECu_L8q4WD-lNS--6" value="Vertical Container" style="swimlane;" vertex="1" parent="1">
          <mxGeometry x="660" y="62.5" width="200" height="200" as="geometry" />
        </mxCell>
        <mxCell id="GjIBwECu_L8q4WD-lNS--38" value="Text" style="text;html=1;strokeColor=none;fillColor=none;align=center;verticalAlign=middle;whiteSpace=wrap;rounded=0;" vertex="1" parent="GjIBwECu_L8q4WD-lNS--6">
          <mxGeometry x="40" y="70" width="40" height="20" as="geometry" />
        </mxCell>
        <mxCell id="GjIBwECu_L8q4WD-lNS--14" value="&#xa;&#xa;&lt;span style=&quot;color: rgb(0, 0, 0); font-family: helvetica; font-size: 12px; font-style: normal; font-weight: 400; letter-spacing: normal; text-align: center; text-indent: 0px; text-transform: none; word-spacing: 0px; background-color: rgb(248, 249, 250); display: inline; float: none;&quot;&gt;Text&lt;/span&gt;&#xa;&#xa;" style="text;html=1;strokeColor=none;fillColor=none;align=center;verticalAlign=middle;whiteSpace=wrap;rounded=0;" vertex="1" parent="1">
          <mxGeometry x="275" y="430" width="40" height="20" as="geometry" />
        </mxCell>
        <mxCell id="GjIBwECu_L8q4WD-lNS--15" value="&#xa;&#xa;&lt;span style=&quot;color: rgb(0, 0, 0); font-family: helvetica; font-size: 12px; font-style: normal; font-weight: 400; letter-spacing: normal; text-align: center; text-indent: 0px; text-transform: none; word-spacing: 0px; background-color: rgb(248, 249, 250); display: inline; float: none;&quot;&gt;Text&lt;/span&gt;&#xa;&#xa;" style="text;html=1;strokeColor=none;fillColor=none;align=center;verticalAlign=middle;whiteSpace=wrap;rounded=0;" vertex="1" parent="1">
          <mxGeometry x="342.5" y="430" width="40" height="20" as="geometry" />
        </mxCell>
        <mxCell id="GjIBwECu_L8q4WD-lNS--16" value="&#xa;&#xa;&lt;span style=&quot;color: rgb(0, 0, 0); font-family: helvetica; font-size: 12px; font-style: normal; font-weight: 400; letter-spacing: normal; text-align: center; text-indent: 0px; text-transform: none; word-spacing: 0px; background-color: rgb(248, 249, 250); display: inline; float: none;&quot;&gt;Text&lt;/span&gt;&#xa;&#xa;" style="text;html=1;strokeColor=none;fillColor=none;align=center;verticalAlign=middle;whiteSpace=wrap;rounded=0;" vertex="1" parent="1">
          <mxGeometry x="310" y="420" width="40" height="20" as="geometry" />
        </mxCell>
        <mxCell id="GjIBwECu_L8q4WD-lNS--19" value="&#xa;&#xa;&lt;span style=&quot;color: rgb(0, 0, 0); font-family: helvetica; font-size: 12px; font-style: normal; font-weight: 400; letter-spacing: normal; text-align: center; text-indent: 0px; text-transform: none; word-spacing: 0px; background-color: rgb(248, 249, 250); display: inline; float: none;&quot;&gt;Text&lt;/span&gt;&#xa;&#xa;" style="text;html=1;strokeColor=none;fillColor=none;align=center;verticalAlign=middle;whiteSpace=wrap;rounded=0;" vertex="1" parent="1">
          <mxGeometry x="240" y="410" width="40" height="20" as="geometry" />
        </mxCell>
        <mxCell id="GjIBwECu_L8q4WD-lNS--23" value="" style="triangle;whiteSpace=wrap;html=1;" vertex="1" parent="1">
          <mxGeometry x="530" y="400" width="60" height="80" as="geometry" />
        </mxCell>
        <mxCell id="GjIBwECu_L8q4WD-lNS--24" value="" style="triangle;whiteSpace=wrap;html=1;" vertex="1" parent="1">
          <mxGeometry x="440" y="400" width="60" height="80" as="geometry" />
        </mxCell>
        <mxCell id="GjIBwECu_L8q4WD-lNS--7" value="&#xa;&#xa;&lt;span style=&quot;color: rgb(0, 0, 0); font-family: helvetica; font-size: 12px; font-style: normal; font-weight: 400; letter-spacing: normal; text-align: center; text-indent: 0px; text-transform: none; word-spacing: 0px; background-color: rgb(248, 249, 250); display: inline; float: none;&quot;&gt;Text&lt;/span&gt;&#xa;&#xa;" style="text;html=1;strokeColor=none;fillColor=none;align=center;verticalAlign=middle;whiteSpace=wrap;rounded=0;" vertex="1" parent="1">
          <mxGeometry x="385" y="420" width="40" height="20" as="geometry" />
        </mxCell>
        <mxCell id="GjIBwECu_L8q4WD-lNS--28" style="edgeStyle=orthogonalEdgeStyle;rounded=0;orthogonalLoop=1;jettySize=auto;html=1;exitX=0.5;exitY=0;exitDx=0;exitDy=0;entryX=1;entryY=0.25;entryDx=0;entryDy=0;" edge="1" parent="1" source="GjIBwECu_L8q4WD-lNS--17" target="GjIBwECu_L8q4WD-lNS--19">
          <mxGeometry relative="1" as="geometry" />
        </mxCell>
        <mxCell id="GjIBwECu_L8q4WD-lNS--29" value="" style="ellipse;whiteSpace=wrap;html=1;aspect=fixed;" vertex="1" parent="1">
          <mxGeometry x="362.5" y="62.5" width="180" height="180" as="geometry" />
        </mxCell>
        <mxCell id="GjIBwECu_L8q4WD-lNS--30" value="Event loops" style="text;html=1;strokeColor=none;fillColor=none;align=center;verticalAlign=middle;whiteSpace=wrap;rounded=0;" vertex="1" parent="1">
          <mxGeometry x="362.5" y="20" width="155" height="50" as="geometry" />
        </mxCell>
        <mxCell id="GjIBwECu_L8q4WD-lNS--17" value="asynchornous logic take time (callback)" style="text;html=1;strokeColor=none;fillColor=none;align=center;verticalAlign=middle;whiteSpace=wrap;rounded=0;" vertex="1" parent="1">
          <mxGeometry x="80" y="285" width="120" height="20" as="geometry" />
        </mxCell>
        <mxCell id="GjIBwECu_L8q4WD-lNS--32" value="queue&amp;nbsp;" style="rounded=0;whiteSpace=wrap;html=1;" vertex="1" parent="1">
          <mxGeometry x="360" y="272.5" width="50" height="60" as="geometry" />
        </mxCell>
        <mxCell id="GjIBwECu_L8q4WD-lNS--33" value="" style="rounded=0;whiteSpace=wrap;html=1;" vertex="1" parent="1">
          <mxGeometry x="410" y="272.5" width="50" height="60" as="geometry" />
        </mxCell>
        <mxCell id="GjIBwECu_L8q4WD-lNS--34" value="" style="rounded=0;whiteSpace=wrap;html=1;" vertex="1" parent="1">
          <mxGeometry x="510" y="272.5" width="50" height="60" as="geometry" />
        </mxCell>
        <mxCell id="GjIBwECu_L8q4WD-lNS--35" value="" style="rounded=0;whiteSpace=wrap;html=1;" vertex="1" parent="1">
          <mxGeometry x="460" y="272.5" width="50" height="60" as="geometry" />
        </mxCell>
        <mxCell id="GjIBwECu_L8q4WD-lNS--40" value="Text" style="text;html=1;strokeColor=none;fillColor=none;align=center;verticalAlign=middle;whiteSpace=wrap;rounded=0;" vertex="1" parent="1">
          <mxGeometry x="190" y="430" width="40" height="20" as="geometry" />
        </mxCell>
        <mxCell id="GjIBwECu_L8q4WD-lNS--39" value="Text" style="text;html=1;strokeColor=none;fillColor=none;align=center;verticalAlign=middle;whiteSpace=wrap;rounded=0;" vertex="1" parent="1">
          <mxGeometry x="120" y="430" width="40" height="20" as="geometry" />
        </mxCell>
        <mxCell id="GjIBwECu_L8q4WD-lNS--46" style="edgeStyle=orthogonalEdgeStyle;rounded=0;orthogonalLoop=1;jettySize=auto;html=1;exitX=1;exitY=0.5;exitDx=0;exitDy=0;entryX=0.485;entryY=1.18;entryDx=0;entryDy=0;entryPerimeter=0;" edge="1" parent="1" source="GjIBwECu_L8q4WD-lNS--42" target="GjIBwECu_L8q4WD-lNS--14">
          <mxGeometry relative="1" as="geometry">
            <Array as="points">
              <mxPoint x="190" y="460" />
              <mxPoint x="190" y="454" />
            </Array>
          </mxGeometry>
        </mxCell>
        <mxCell id="GjIBwECu_L8q4WD-lNS--42" value="callback" style="rhombus;whiteSpace=wrap;html=1;" vertex="1" parent="1">
          <mxGeometry x="570" y="192.5" width="80" height="80" as="geometry" />
        </mxCell>
        <mxCell id="GjIBwECu_L8q4WD-lNS--44" value="" style="endArrow=none;dashed=1;html=1;dashPattern=1 3;strokeWidth=2;entryX=0.5;entryY=1;entryDx=0;entryDy=0;exitX=1;exitY=0.25;exitDx=0;exitDy=0;" edge="1" parent="1" source="GjIBwECu_L8q4WD-lNS--17" target="GjIBwECu_L8q4WD-lNS--42">
          <mxGeometry width="50" height="50" relative="1" as="geometry">
            <mxPoint x="480" y="300" as="sourcePoint" />
            <mxPoint x="530" y="250" as="targetPoint" />
          </mxGeometry>
        </mxCell>
        <mxCell id="GjIBwECu_L8q4WD-lNS--45" value="if call stack is empty , and if my promise or async event resolve with a result" style="text;html=1;strokeColor=none;fillColor=none;align=center;verticalAlign=middle;whiteSpace=wrap;rounded=0;" vertex="1" parent="1">
          <mxGeometry x="220" y="152.5" width="150" height="20" as="geometry" />
        </mxCell>
      </root>
    </mxGraphModel>
  </diagram>
</mxfile>
